HIERARCHY
ROOT Hips
{
 OFFSET 0.000000 0.000000 0.000000
 CHANNELS 6 Xposition Yposition Zposition Yrotation Xrotation Zrotation
 JOINT Chest
 {
  OFFSET 0.000000 9.585900 0.002600
  CHANNELS 3 Yrotation Xrotation Zrotation
  JOINT Chest2
  {
   OFFSET 0.000000 9.601200 -0.005300
   CHANNELS 3 Yrotation Xrotation Zrotation
   JOINT Chest3
   {
    OFFSET 0.000000 9.561800 0.000000
    CHANNELS 3 Yrotation Xrotation Zrotation
    JOINT Chest4
    {
     OFFSET 0.000000 9.552100 0.000000
     CHANNELS 3 Yrotation Xrotation Zrotation
     JOINT Neck
     {
      OFFSET 0.000000 14.453000 0.000000
      CHANNELS 3 Yrotation Xrotation Zrotation
      JOINT Head
      {
       OFFSET 0.000000 8.936500 -0.011300
       CHANNELS 3 Yrotation Xrotation Zrotation
       End Site
       {
        OFFSET 0.000000 17.073600 -0.006000
       }
      }
     }
     JOINT RightCollar
     {
      OFFSET -2.921100 9.558500 0.000000
      CHANNELS 3 Yrotation Xrotation Zrotation
      JOINT RightShoulder
      {
       OFFSET -13.519700 0.000000 0.000000
       CHANNELS 3 Yrotation Xrotation Zrotation
       JOINT RightElbow
       {
        OFFSET 0.000000 -29.696600 0.000000
        CHANNELS 3 Yrotation Xrotation Zrotation
        JOINT RightWrist
        {
         OFFSET 0.000000 -24.004700 0.000000
         CHANNELS 3 Yrotation Xrotation Zrotation
         End Site
         {
          OFFSET 0.000000 -17.728500 0.000000
         }
        }
       }
      }
     }
     JOINT LeftCollar
     {
      OFFSET 2.921100 9.558500 0.000000
      CHANNELS 3 Yrotation Xrotation Zrotation
      JOINT LeftShoulder
      {
       OFFSET 13.519700 0.000000 0.000000
       CHANNELS 3 Yrotation Xrotation Zrotation
       JOINT LeftElbow
       {
        OFFSET 0.000000 -29.696600 0.000000
        CHANNELS 3 Yrotation Xrotation Zrotation
        JOINT LeftWrist
        {
         OFFSET 0.000000 -24.004700 0.000000
         CHANNELS 3 Yrotation Xrotation Zrotation
         End Site
         {
          OFFSET 0.000000 -17.728500 0.000000
         }
        }
       }
      }
     }
    }
   }
  }
 }
 JOINT RightHip
 {
  OFFSET -7.771700 -0.012900 -0.001300
  CHANNELS 3 Yrotation Xrotation Zrotation
  JOINT RightKnee
  {
   OFFSET 0.000000 -40.869800 0.001200
   CHANNELS 3 Yrotation Xrotation Zrotation
   JOINT RightAnkle
   {
    OFFSET 0.000000 -39.717900 0.002100
    CHANNELS 3 Yrotation Xrotation Zrotation
    JOINT RightToe
    {
     OFFSET 0.000000 -4.965400 11.033500
     CHANNELS 3 Yrotation Xrotation Zrotation
     End Site
     {
      OFFSET 0.000000 -1.423100 5.872300
     }
    }
   }
  }
 }
 JOINT LeftHip
 {
  OFFSET 7.771700 -0.012900 -0.001300
  CHANNELS 3 Yrotation Xrotation Zrotation
  JOINT LeftKnee
  {
   OFFSET 0.000000 -40.869800 0.001200
   CHANNELS 3 Yrotation Xrotation Zrotation
   JOINT LeftAnkle
   {
    OFFSET 0.000000 -39.717900 0.002100
    CHANNELS 3 Yrotation Xrotation Zrotation
    JOINT LeftToe
    {
     OFFSET 0.000000 -4.965400 11.033500
     CHANNELS 3 Yrotation Xrotation Zrotation
     End Site
     {
      OFFSET 0.000000 -1.423100 5.872300
     }
    }
   }
  }
 }
}
MOTION
Frames: 7
Frame Time: 0.008333
-50.919279 62.223308 13.827407 176.629062 -53.070896 0.012331 4.372143 27.129351 0.352400 0.674165 4.596992 0.019284 1.070747 7.282070 0.055359 3.349397 21.827534 0.607250 1.085536 15.768563 3.593189 0.744624 -6.465035 6.286039 6.318574 6.971210 5.656574 -3.013334 -11.640017 -12.387737 -100.036295 -57.813784 138.294531 6.890090 -1.433077 -23.914515 -9.286989 3.810854 -1.081341 -2.653738 -9.786819 19.523888 110.022916 -69.452029 -139.820002 7.884866 -8.227167 1.124834 3.134039 -13.608649 -7.102130 3.209821 61.665168 -1.357060 1.397498 -9.776862 10.625929 0.042612 -0.166415 0.011511 0.477415 -3.047501 6.702800 121.823529 83.977694 130.427564 -5.018495 -16.132904 -10.378782 0.377038 -21.772670 -0.609811
-50.918821 62.223528 13.826848 176.620562 -53.066626 0.012820 4.379493 27.126950 0.358470 0.673030 4.600203 0.020147 1.073879 7.280958 0.055087 3.353538 21.831520 0.610906 1.089363 15.769951 3.587804 0.754924 -6.453469 6.277863 6.318641 6.959209 5.653015 -3.017017 -11.630259 -12.379385 -100.013242 -57.830506 138.279398 6.896042 -1.442755 -23.915317 -9.296511 3.803261 -1.075298 -2.668224 -9.790224 19.533360 109.997255 -69.460013 -139.807830 7.884849 -8.233147 1.136793 3.139140 -13.613222 -7.097582 3.209637 61.665697 -1.351148 1.392735 -9.781443 10.621783 0.049232 -0.161773 0.014146 0.483181 -3.049954 6.710187 121.835482 83.979774 130.440646 -5.017127 -16.136251 -10.378600 0.377393 -21.771277 -0.610162
-50.919043 62.223643 13.826231 176.616096 -53.061931 0.013297 4.382416 27.124536 0.360773 0.670400 4.601991 0.022368 1.071835 7.285754 0.055235 3.356912 21.825631 0.608120 1.099386 15.782952 3.583029 0.765822 -6.448792 6.270200 6.327560 6.952287 5.650134 -3.019210 -11.618619 -12.371530 -100.006052 -57.843529 138.276048 6.896949 -1.436074 -23.922622 -9.298414 3.801205 -1.069950 -2.674462 -9.792224 19.534877 109.986369 -69.474047 -139.818285 7.879770 -8.221545 1.135571 3.141977 -13.617885 -7.093225 3.193511 61.666863 -1.364596 1.389968 -9.786813 10.620751 0.042826 -0.159934 0.015537 0.487012 -3.053217 6.712126 121.815931 83.978242 130.424042 -5.017736 -16.138187 -10.380894 0.376808 -21.770550 -0.609591
-50.921212 62.223721 13.825423 176.605167 -53.057738 0.029709 4.375856 27.130032 0.353277 0.673896 4.598792 0.018496 1.071652 7.283804 0.054034 3.359964 21.822773 0.606685 1.102591 15.786809 3.581577 0.778028 -6.438507 6.261686 6.332865 6.949797 5.648294 -3.009369 -11.607266 -12.363151 -100.027201 -57.853984 138.286361 6.884414 -1.391513 -23.902639 -9.298942 3.800800 -1.068177 -2.682358 -9.793010 19.539797 109.982340 -69.479536 -139.819472 7.846567 -8.180364 1.087879 3.151596 -13.623411 -7.102849 3.183857 61.671626 -1.371812 1.389727 -9.794394 10.620353 0.045056 -0.155183 0.016751 0.495129 -3.056223 6.703173 121.808263 83.980195 130.416270 -5.017710 -16.135519 -10.376537 0.377096 -21.772604 -0.611687
-50.922271 62.223237 13.825044 176.604473 -53.049943 0.030357 4.373866 27.127517 0.352674 0.672744 4.601818 0.018894 1.072670 7.277057 0.052189 3.350787 21.828178 0.604355 1.112574 15.791673 3.577268 0.783002 -6.445093 6.260350 6.349672 6.942263 5.643145 -3.011445 -11.605012 -12.357202 -99.996036 -57.864508 138.263325 6.883756 -1.388848 -23.897677 -9.295022 3.795707 -1.065342 -2.696184 -9.793130 19.546923 109.988230 -69.484057 -139.815438 7.836712 -8.167532 1.068907 3.146408 -13.633938 -7.107837 3.192126 61.674882 -1.362649 1.396905 -9.798213 10.614991 0.033700 -0.156535 0.016905 0.496126 -3.063545 6.702025 121.813919 83.978297 130.421678 -5.013808 -16.139707 -10.375806 0.376331 -21.769729 -0.613661
-50.923135 62.223372 13.824176 176.605919 -53.047204 0.027718 4.373272 27.126638 0.354292 0.671370 4.609267 0.020967 1.071140 7.278277 0.051482 3.341154 21.843292 0.607666 1.128946 15.797455 3.566757 0.797945 -6.457006 6.248335 6.382807 6.914622 5.628572 -3.004594 -11.593195 -12.345441 -99.989381 -57.887809 138.244911 6.887179 -1.396186 -23.903266 -9.291898 3.771780 -1.067053 -2.704997 -9.795877 19.553914 109.984584 -69.498609 -139.816505 7.832302 -8.165325 1.059584 3.142552 -13.637805 -7.108033 3.196301 61.677124 -1.359190 1.400460 -9.801028 10.613133 0.039288 -0.159211 0.018096 0.496184 -3.065208 6.703335 121.826603 83.978522 130.433965 -5.009484 -16.143524 -10.373482 0.374342 -21.767487 -0.615839
-50.924340 62.223319 13.823430 176.609210 -53.043150 0.025369 4.369376 27.131293 0.354800 0.671358 4.609915 0.023228 1.068063 7.288183 0.052829 3.338866 21.837170 0.605522 1.134537 15.797079 3.559784 0.813036 -6.448151 6.235507 6.396655 6.899253 5.621457 -2.996581 -11.587053 -12.341728 -99.964598 -57.899667 138.211495 6.899645 -1.408889 -23.907509 -9.289400 3.758411 -1.071744 -2.724911 -9.795074 19.565862 109.966114 -69.528834 -139.824753 7.829975 -8.181316 1.077770 3.140240 -13.641531 -7.108348 3.184561 61.678279 -1.369956 1.402243 -9.806986 10.613474 0.039149 -0.158134 0.017967 0.495723 -3.068652 6.705032 121.858219 83.981823 130.464378 -5.007739 -16.147785 -10.370499 0.373842 -21.764555 -0.615405
